mtllib materials.mtl
v -0.03833354 -0.2438889 0.1844445
v -0.04833341 -0.2438889 0.1844444
v -0.04833353 0.2161111 0.1844444
v -0.03833354 0.2161111 0.1844445
v -0.03833342 -0.2438889 -0.1955556
v -0.03833354 0.2161111 -0.1955556
v -0.04833353 0.2161111 -0.1955556
v -0.04833341 -0.2438889 -0.1955556
v -0.0383333 0.2061111 0.1844445
v -0.0383333 0.2161111 0.1844445
v -0.02833343 0.2161111 0.1844445
v -0.0383333 0.2061111 -0.1955555
v -0.02833343 0.2161111 -0.1955555
v -0.0383333 0.2161111 -0.1955555
v -0.0383333 -0.2438889 0.1844445
v -0.0383333 -0.2338888 0.1844445
v -0.02833343 -0.2338889 0.1844445
v -0.0383333 -0.2438889 -0.1955555
v -0.02833343 -0.2338889 -0.1955555
v -0.0383333 -0.2338888 -0.1955555
v -0.0383333 0.2161111 -0.1855555
v -0.0383333 0.2161111 -0.1955556
v -0.02833343 0.2161111 -0.1955555
v -0.0383333 -0.233889 -0.1855555
v -0.02833343 -0.233889 -0.1955555
v -0.0383333 -0.233889 -0.1955556
v -0.03833342 0.2161112 0.1844445
v -0.03833342 0.2161112 0.1744445
v -0.02833354 0.2161112 0.1744446
v -0.03833342 -0.2338889 0.1844445
v -0.02833354 -0.2338889 0.1744446
v -0.03833342 -0.2338889 0.1744445
v -0.03833354 -0.1938889 -0.1455556
v -0.03833354 -0.193889 0.1344444
v -0.02833343 -0.193889 0.1344444
v -0.02833343 -0.1938889 -0.1455556
v -0.03833354 -0.1138889 -0.1455556
v -0.02833343 -0.1138889 -0.1455556
v -0.02833343 -0.113889 0.1344444
v -0.03833354 -0.113889 0.1344444
v -0.03833354 0.141111 0.1494444
v -0.03833354 0.191111 0.1494444
v -0.02833343 0.191111 0.1494444
v -0.02833343 0.141111 0.1494444
v -0.03833354 0.141111 -0.1605555
v -0.02833343 0.141111 -0.1605555
v -0.02833343 0.191111 -0.1605555
v -0.03833354 0.191111 -0.1605555
v -0.0383333 -0.09388912 -0.1255556
v -0.0383333 -0.09388912 0.1044444
v -0.02833319 -0.09388924 0.1044444
v -0.02833319 -0.09388924 -0.1255556
v -0.03833318 0.1161111 -0.1255556
v -0.02833307 0.1161113 -0.1255556
v -0.02833307 0.1161112 0.1044444
v -0.03833318 0.116111 0.1044444
v -0.04833341 -0.2388889 -0.1905556
v -0.04833341 0.2111111 -0.1905556
v -0.0583334 0.2111111 -0.1905555
v -0.0583334 -0.2388889 -0.1905555
v -0.04833376 -0.2388889 0.1794445
v -0.05833375 -0.2388889 0.1794444
v -0.05833375 0.2111111 0.1794445
v -0.04833376 0.2111111 0.1794445
vn -3.099462E-06 -8.909623E-10 1
vn -1.370916E-06 -1.134094E-09 -1
vn -5.059075E-07 -1 -8.115209E-14
vn -3.37626E-06 1 -2.06339E-13
vn 1 1.282794E-07 1.584825E-07
vn -1 -1.748456E-07 -1.202663E-07
vn 1.043083E-07 0 1
vn -5.699743E-07 0 -1
vn -1 -3.7143E-06 7.304079E-15
vn 0.7071111 -0.7071025 -7.113395E-10
vn 3.725324E-06 1 8.205719E-10
vn 1.043083E-07 0 1
vn -5.699743E-07 0 -1
vn -1 -3.7143E-06 7.304079E-15
vn 0.7071111 -0.7071025 -7.113395E-10
vn 3.725324E-06 1 8.205719E-10
vn -1.490094E-08 1 1.823785E-14
vn -2.980046E-07 -1 -7.2948E-14
vn -1 3.22858E-08 1.826041E-06
vn 0.7071109 -5.489419E-08 0.7071027
vn 5.017775E-06 3.303029E-08 -1
vn 1.63913E-07 1 7.910826E-14
vn -4.768185E-07 -1 -1.885285E-13
vn -1 2.707044E-07 1.651196E-06
vn 0.7071108 -2.234826E-07 0.7071029
vn 5.19262E-06 3.302909E-08 -1
vn -1.772697E-06 -1 -1.61541E-07
vn 1.649833E-08 1 2.081071E-07
vn -1 -2.048912E-08 2.361561E-09
vn 1 -2.793974E-09 -7.999346E-09
vn 9.520201E-15 2.547068E-07 -1
vn 1.129635E-14 -8.008492E-08 1
vn 1.184632E-06 2.980242E-07 1
vn 1.236787E-06 2.980242E-07 -1
vn -1 -1.134796E-06 0
vn 1 4.44149E-08 0
vn 7.450545E-07 -1 -4.010751E-09
vn 0 1 6.417738E-11
vn -1.821096E-05 -1 1.951743E-08
vn -1.751062E-05 1 2.396332E-07
vn -1 5.804354E-07 9.440243E-09
vn 1 -5.804346E-07 1.579606E-08
vn -7.982581E-15 -2.98747E-09 -1
vn 1.526808E-14 -4.676764E-08 1
vn -5.582974E-06 0 -1
vn -6.669104E-06 -1.324548E-07 1
vn 1 3.34721E-09 9.633397E-07
vn -1 -6.211125E-09 -9.6334E-07
vn 8.545882E-15 -1 -3.584403E-08
vn -5.37706E-15 1 2.255303E-08
vt -0.01296936 0.1220895
vt -0.01252216 0.1211951
vt 0.02862149 0.141767
vt 0.02817428 0.1426614
vt 0.01296914 0.1220893
vt -0.02817452 0.1426611
vt -0.02862173 0.1417666
vt 0.01252193 0.1211948
vt 0.1187267 0.07971168
vt 0.08294055 0.09249248
vt 0.08260421 0.09155074
vt 0.1183904 0.07876995
vt -0.1187268 0.07971206
vt -0.1183905 0.07877032
vt -0.08260426 0.09155108
vt -0.08294059 0.09249283
vt 0.09416056 -0.01441475
vt 0.1208975 0.02301699
vt 0.08997566 0.04510405
vt 0.06323869 0.007672323
vt -0.09416056 -0.01441474
vt -0.0632387 0.00767232
vt -0.08997566 0.04510405
vt -0.1208975 0.02301699
vt 0.02728003 0.1422139
vt 0.02817447 0.1426611
vt 0.02772725 0.1435556
vt -0.02728005 0.1422139
vt -0.02772727 0.1435555
vt -0.02817448 0.1426611
vt -0.1203161 0.02220253
vt -0.08939435 0.04428969
vt -0.08997559 0.04510342
vt -0.1208974 0.02301626
vt 0.1263623 0.108913
vt 0.1268136 0.1102533
vt 0.09080033 0.1223796
vt 0.09034903 0.1210393
vt -0.1187267 0.07971135
vt -0.0829405 0.09249216
vt -0.08327684 0.09343389
vt -0.119063 0.08065308
vt -0.01296919 0.1220893
vt -0.01207476 0.1225365
vt -0.01252197 0.1234309
vt 0.01296917 0.1220893
vt 0.01252195 0.1234309
vt 0.01207474 0.1225365
vt -0.0941603 -0.01441538
vt -0.0632385 0.007671777
vt -0.06381974 0.00848551
vt -0.09474154 -0.01360165
vt 0.1162081 0.0787567
vt 0.1166594 0.08009696
vt 0.08064614 0.09222327
vt 0.08019485 0.090883
vt -0.1187267 0.07971151
vt -0.08294056 0.09249231
vt -0.0832769 0.09343404
vt -0.1190631 0.08065324
vt -0.08388231 0.09215619
vt -0.08294056 0.09249252
vt -0.0832769 0.09343425
vt 0.08388231 0.09215617
vt 0.0832769 0.09343424
vt 0.08294056 0.09249251
vt -0.09078947 0.04452294
vt -0.06463383 0.007904866
vt -0.06382009 0.008486106
vt -0.08997573 0.04510418
vt 0.05703829 0.08313887
vt 0.05638483 0.08439304
vt 0.01647686 0.0635999
vt 0.01713032 0.06234572
vt -0.02817425 0.1426614
vt 0.01207498 0.1225367
vt 0.01252218 0.1234311
vt -0.02772703 0.1435558
vt -0.1187268 0.07971171
vt -0.117785 0.08004805
vt -0.1181213 0.08098977
vt 0.1187268 0.07971169
vt 0.1181213 0.08098976
vt 0.117785 0.08004803
vt -0.1208977 0.02301724
vt -0.09474204 -0.01360084
vt -0.0939283 -0.0130196
vt -0.1200839 0.02359848
vt 0.06912749 0.05993631
vt 0.06847404 0.06119049
vt 0.02856607 0.04039735
vt 0.02921953 0.03914317
vt -0.02817417 0.1426616
vt 0.01207505 0.1225369
vt 0.01252226 0.1234313
vt -0.02772696 0.143556
vt 0.08764926 0.09081071
vt 0.114018 0.08139328
vt 0.1143544 0.08233503
vt 0.0879856 0.09175245
vt -0.08764926 0.09081081
vt -0.0879856 0.09175256
vt -0.1143544 0.08233514
vt -0.114018 0.08139339
vt -0.07021357 0.008834817
vt -0.07486348 0.01534468
vt -0.09764801 -0.0009299919
vt -0.0929981 -0.007439858
vt 0.07021358 0.008834818
vt 0.09299811 -0.007439853
vt 0.09764802 -0.0009299867
vt 0.07486349 0.01534469
vt 0.008497029 0.1243254
vt 0.00894425 0.1252198
vt 0.001788831 0.1287975
vt 0.001341612 0.1279031
vt -0.008497046 0.1243254
vt -0.00134163 0.1279031
vt -0.001788849 0.1287975
vt -0.008944266 0.1252198
vt 0.02146628 0.1393069
vt 0.02593842 0.141543
vt 0.0254912 0.1424374
vt 0.02101907 0.1402014
vt -0.02146622 0.1393071
vt -0.02101901 0.1402015
vt -0.02549114 0.1424376
vt -0.02593836 0.1415431
vt -0.1136901 0.01894813
vt -0.08846442 0.03696654
vt -0.09137061 0.0410352
vt -0.1165963 0.02301679
vt 0.1136902 0.01894835
vt 0.1165964 0.02301702
vt 0.09137064 0.0410354
vt 0.08846445 0.03696673
vt 0.1154307 0.08088896
vt 0.115767 0.08183071
vt 0.086573 0.09225713
vt 0.08623666 0.09131538
vt -0.1154306 0.0808889
vt -0.08623665 0.09131532
vt -0.08657299 0.09225708
vt -0.115767 0.08183064
vt 0.08953266 0.09013691
vt 0.1111927 0.08240111
vt 0.111529 0.08334287
vt 0.089869 0.09107866
vt -0.08953296 0.09013973
vt -0.08986931 0.09108149
vt -0.1115294 0.0833458
vt -0.111193 0.08240405
vt -0.07765345 0.01580976
vt -0.08985945 0.03289819
vt -0.1085753 0.01952972
vt -0.09636932 0.002441294
vt 0.07765343 0.01580975
vt 0.09636931 0.002441286
vt 0.1085753 0.01952973
vt 0.08985946 0.03289821
vt -0.0004471917 0.1287975
vt 3.74627E-08 0.129692
vt -0.01878298 0.1390835
vt -0.01923018 0.138189
vt 0.0004471951 0.1287975
vt 0.01923018 0.138189
vt 0.01878297 0.1390835
vt -3.409748E-08 0.129692
vt 0.01207455 0.1214183
vt -0.02817469 0.1415429
vt -0.02862191 0.1406484
vt 0.01162733 0.1205238
vt -0.01207511 0.121419
vt -0.01162789 0.1205245
vt 0.02862132 0.1406492
vt 0.0281741 0.1415436
vt 0.06393612 0.007788574
vt 0.09404424 -0.01371728
vt 0.1202 0.02290069
vt 0.09009189 0.04440655
vt -0.06393613 0.00778857
vt -0.0900919 0.04440655
vt -0.1202 0.02290069
vt -0.09404423 -0.01371728
vt 0.08307509 0.09138259
vt 0.08273876 0.09044085
vt 0.1175832 0.07799637
vt 0.1179195 0.07893811
vt -0.08307509 0.09138261
vt -0.1179195 0.07893812
vt -0.1175832 0.07799638
vt -0.08273876 0.09044085
o group394142201
g mesh394142201
usemtl mat13
f 4/4/1 3/3/1 2/2/1 1/1/1
f 8/8/2 7/7/2 6/6/2 5/5/2
f 2/12/3 8/11/3 5/10/3 1/9/3
f 6/16/4 7/15/4 3/14/4 4/13/4
f 5/20/5 6/19/5 4/18/5 1/17/5
f 3/24/6 7/23/6 8/22/6 2/21/6
o group1679968468
g mesh1679968468
usemtl mat23
f 11/27/7 10/26/7 9/25/7
f 14/30/8 13/29/8 12/28/8
f 10/34/9 14/33/9 12/32/9 9/31/9
f 12/38/10 13/37/10 11/36/10 9/35/10
f 11/42/11 13/41/11 14/40/11 10/39/11
o group981423312
g mesh981423312
usemtl mat23
f 17/45/12 16/44/12 15/43/12
f 20/48/13 19/47/13 18/46/13
f 16/52/14 20/51/14 18/50/14 15/49/14
f 18/56/15 19/55/15 17/54/15 15/53/15
f 17/60/16 19/59/16 20/58/16 16/57/16
o group1851066618
g mesh1851066618
usemtl mat23
f 23/63/17 22/62/17 21/61/17
f 26/66/18 25/65/18 24/64/18
f 22/70/19 26/69/19 24/68/19 21/67/19
f 24/74/20 25/73/20 23/72/20 21/71/20
f 23/78/21 25/77/21 26/76/21 22/75/21
o group2074676048
g mesh2074676048
usemtl mat23
f 29/81/22 28/80/22 27/79/22
f 32/84/23 31/83/23 30/82/23
f 28/88/24 32/87/24 30/86/24 27/85/24
f 30/92/25 31/91/25 29/90/25 27/89/25
f 29/96/26 31/95/26 32/94/26 28/93/26
o group724367130
g mesh724367130
usemtl mat18
f 36/100/27 35/99/27 34/98/27 33/97/27
f 40/104/28 39/103/28 38/102/28 37/101/28
f 34/108/29 40/107/29 37/106/29 33/105/29
f 38/112/30 39/111/30 35/110/30 36/109/30
f 37/116/31 38/115/31 36/114/31 33/113/31
f 35/120/32 39/119/32 40/118/32 34/117/32
o group1189962451
g mesh1189962451
usemtl mat13
f 44/124/33 43/123/33 42/122/33 41/121/33
f 48/128/34 47/127/34 46/126/34 45/125/34
f 42/132/35 48/131/35 45/130/35 41/129/35
f 46/136/36 47/135/36 43/134/36 44/133/36
f 45/140/37 46/139/37 44/138/37 41/137/37
f 43/144/38 47/143/38 48/142/38 42/141/38
o group1908174216
g mesh1908174216
usemtl mat17
f 52/148/39 51/147/39 50/146/39 49/145/39
f 56/152/40 55/151/40 54/150/40 53/149/40
f 50/156/41 56/155/41 53/154/41 49/153/41
f 54/160/42 55/159/42 51/158/42 52/157/42
f 53/164/43 54/163/43 52/162/43 49/161/43
f 51/168/44 55/167/44 56/166/44 50/165/44
o group1866753995
g mesh1866753995
usemtl mat17
f 60/172/45 59/171/45 58/170/45 57/169/45
f 64/176/46 63/175/46 62/174/46 61/173/46
f 58/180/47 64/179/47 61/178/47 57/177/47
f 62/184/48 63/183/48 59/182/48 60/181/48
f 61/188/49 62/187/49 60/186/49 57/185/49
f 59/192/50 63/191/50 64/190/50 58/189/50
